<?xml version="1.0" encoding="utf-8"?>
<!-- Generator: Adobe Illustrator 15.1.0, SVG Export Plug-In . SVG Version: 6.00 Build 0)  -->
<!DOCTYPE svg PUBLIC "-//W3C//DTD SVG 1.1//EN" "http://www.w3.org/Graphics/SVG/1.1/DTD/svg11.dtd">
<svg version="1.1" id="Layer_1" xmlns="http://www.w3.org/2000/svg" xmlns:xlink="http://www.w3.org/1999/xlink" x="0px" y="0px"
	 width="612px" height="792px" viewBox="0 0 612 792" enable-background="new 0 0 612 792" xml:space="preserve">
<g>
	<g>
		<path fill="#ED1C24" d="M35.269,397.203c0,0,71.767-9.082,112.689-6.812l2.518,48.022c0,0-84.989,5.499-114.577,8.742
			l22.035-27.57L35.269,397.203z"/>
		<polygon fill="#ED1C24" points="150.476,389.109 110.737,420.558 90.039,426.736 150.476,438.413 		"/>
		<path fill="#ED1C24" d="M603.047,397.168c0,0-71.767-9.083-112.688-6.812l-2.517,48.021c0,0,84.988,5.498,114.575,8.742
			l-22.034-27.57L603.047,397.168z"/>
		<polygon fill="#ED1C24" points="487.842,389.074 527.582,420.522 548.281,426.7 487.842,438.378 		"/>
		<path fill="#ED1C24" d="M548.347,426.721c0,0-51.621-8.759-229.153-8.759c-177.532,0-229.154,8.759-229.154,8.759v-50.602
			c0,0,78.065-8.758,229.154-8.758c151.091,0,229.153,8.758,229.153,8.758V426.721z"/>
		<path fill="#ED1C24" d="M319.193,367.361c-151.089,0-229.154,8.758-229.154,8.758v1.367c0,0,78.065-8.757,229.154-8.757
			c151.091,0,229.153,8.757,229.153,8.757v-1.367C548.347,376.119,470.284,367.361,319.193,367.361z"/>
	</g>
	<g>
		
			<linearGradient id="SVGID_1_" gradientUnits="userSpaceOnUse" x1="319.1572" y1="447.1553" x2="319.1572" y2="337.5303" gradientTransform="matrix(1 0 0 0.7279 0 121.6779)">
			<stop  offset="0" style="stop-color:#F26522;stop-opacity:0.22"/>
			<stop  offset="0.5" style="stop-color:#7F3F98"/>
			<stop  offset="0.5376" style="stop-color:#944586;stop-opacity:0.9345"/>
			<stop  offset="0.583" style="stop-color:#A94D75;stop-opacity:0.8556"/>
			<stop  offset="0.6309" style="stop-color:#BC5364;stop-opacity:0.7722"/>
			<stop  offset="0.6805" style="stop-color:#CC5854;stop-opacity:0.6858"/>
			<stop  offset="0.7324" style="stop-color:#D95D44;stop-opacity:0.5957"/>
			<stop  offset="0.787" style="stop-color:#E36035;stop-opacity:0.5006"/>
			<stop  offset="0.8459" style="stop-color:#EA632B;stop-opacity:0.3982"/>
			<stop  offset="0.9119" style="stop-color:#F06524;stop-opacity:0.2833"/>
			<stop  offset="1" style="stop-color:#F26522;stop-opacity:0.13"/>
		</linearGradient>
		<path fill="url(#SVGID_1_)" d="M35.269,397.203c0,0,71.767-9.082,112.689-6.812l2.518,48.022c0,0-84.989,5.499-114.577,8.742
			l22.035-27.57L35.269,397.203z"/>
		
			<linearGradient id="SVGID_2_" gradientUnits="userSpaceOnUse" x1="319.1572" y1="447.1553" x2="319.1572" y2="337.5303" gradientTransform="matrix(1 0 0 0.7279 0 121.6779)">
			<stop  offset="0" style="stop-color:#F26522;stop-opacity:0.22"/>
			<stop  offset="0.5" style="stop-color:#7F3F98"/>
			<stop  offset="0.5376" style="stop-color:#944586;stop-opacity:0.9345"/>
			<stop  offset="0.583" style="stop-color:#A94D75;stop-opacity:0.8556"/>
			<stop  offset="0.6309" style="stop-color:#BC5364;stop-opacity:0.7722"/>
			<stop  offset="0.6805" style="stop-color:#CC5854;stop-opacity:0.6858"/>
			<stop  offset="0.7324" style="stop-color:#D95D44;stop-opacity:0.5957"/>
			<stop  offset="0.787" style="stop-color:#E36035;stop-opacity:0.5006"/>
			<stop  offset="0.8459" style="stop-color:#EA632B;stop-opacity:0.3982"/>
			<stop  offset="0.9119" style="stop-color:#F06524;stop-opacity:0.2833"/>
			<stop  offset="1" style="stop-color:#F26522;stop-opacity:0.13"/>
		</linearGradient>
		<polygon fill="url(#SVGID_2_)" points="150.476,389.109 110.737,420.558 90.039,426.736 150.476,438.413 		"/>
		
			<linearGradient id="SVGID_3_" gradientUnits="userSpaceOnUse" x1="319.1572" y1="447.1553" x2="319.1572" y2="337.5303" gradientTransform="matrix(1 0 0 0.7279 0 121.6779)">
			<stop  offset="0" style="stop-color:#F26522;stop-opacity:0.22"/>
			<stop  offset="0.5" style="stop-color:#7F3F98"/>
			<stop  offset="0.5376" style="stop-color:#944586;stop-opacity:0.9345"/>
			<stop  offset="0.583" style="stop-color:#A94D75;stop-opacity:0.8556"/>
			<stop  offset="0.6309" style="stop-color:#BC5364;stop-opacity:0.7722"/>
			<stop  offset="0.6805" style="stop-color:#CC5854;stop-opacity:0.6858"/>
			<stop  offset="0.7324" style="stop-color:#D95D44;stop-opacity:0.5957"/>
			<stop  offset="0.787" style="stop-color:#E36035;stop-opacity:0.5006"/>
			<stop  offset="0.8459" style="stop-color:#EA632B;stop-opacity:0.3982"/>
			<stop  offset="0.9119" style="stop-color:#F06524;stop-opacity:0.2833"/>
			<stop  offset="1" style="stop-color:#F26522;stop-opacity:0.13"/>
		</linearGradient>
		<path fill="url(#SVGID_3_)" d="M603.047,397.168c0,0-71.767-9.083-112.688-6.812l-2.517,48.021c0,0,84.988,5.498,114.575,8.742
			l-22.034-27.57L603.047,397.168z"/>
		
			<linearGradient id="SVGID_4_" gradientUnits="userSpaceOnUse" x1="319.1572" y1="447.1553" x2="319.1572" y2="337.5303" gradientTransform="matrix(1 0 0 0.7279 0 121.6779)">
			<stop  offset="0" style="stop-color:#F26522;stop-opacity:0.22"/>
			<stop  offset="0.5" style="stop-color:#7F3F98"/>
			<stop  offset="0.5376" style="stop-color:#944586;stop-opacity:0.9345"/>
			<stop  offset="0.583" style="stop-color:#A94D75;stop-opacity:0.8556"/>
			<stop  offset="0.6309" style="stop-color:#BC5364;stop-opacity:0.7722"/>
			<stop  offset="0.6805" style="stop-color:#CC5854;stop-opacity:0.6858"/>
			<stop  offset="0.7324" style="stop-color:#D95D44;stop-opacity:0.5957"/>
			<stop  offset="0.787" style="stop-color:#E36035;stop-opacity:0.5006"/>
			<stop  offset="0.8459" style="stop-color:#EA632B;stop-opacity:0.3982"/>
			<stop  offset="0.9119" style="stop-color:#F06524;stop-opacity:0.2833"/>
			<stop  offset="1" style="stop-color:#F26522;stop-opacity:0.13"/>
		</linearGradient>
		<polygon fill="url(#SVGID_4_)" points="487.842,389.074 527.582,420.522 548.281,426.7 487.842,438.378 		"/>
		
			<linearGradient id="SVGID_5_" gradientUnits="userSpaceOnUse" x1="319.1572" y1="447.1553" x2="319.1572" y2="337.5303" gradientTransform="matrix(1 0 0 0.7279 0 121.6779)">
			<stop  offset="0" style="stop-color:#F26522;stop-opacity:0.22"/>
			<stop  offset="0.5" style="stop-color:#7F3F98"/>
			<stop  offset="0.5376" style="stop-color:#944586;stop-opacity:0.9345"/>
			<stop  offset="0.583" style="stop-color:#A94D75;stop-opacity:0.8556"/>
			<stop  offset="0.6309" style="stop-color:#BC5364;stop-opacity:0.7722"/>
			<stop  offset="0.6805" style="stop-color:#CC5854;stop-opacity:0.6858"/>
			<stop  offset="0.7324" style="stop-color:#D95D44;stop-opacity:0.5957"/>
			<stop  offset="0.787" style="stop-color:#E36035;stop-opacity:0.5006"/>
			<stop  offset="0.8459" style="stop-color:#EA632B;stop-opacity:0.3982"/>
			<stop  offset="0.9119" style="stop-color:#F06524;stop-opacity:0.2833"/>
			<stop  offset="1" style="stop-color:#F26522;stop-opacity:0.13"/>
		</linearGradient>
		<path fill="url(#SVGID_5_)" d="M548.347,426.721c0,0-51.621-8.759-229.153-8.759c-177.532,0-229.154,8.759-229.154,8.759v-50.602
			c0,0,78.065-8.758,229.154-8.758c151.091,0,229.153,8.758,229.153,8.758V426.721z"/>
		
			<linearGradient id="SVGID_6_" gradientUnits="userSpaceOnUse" x1="319.1572" y1="447.1553" x2="319.1572" y2="337.5303" gradientTransform="matrix(1 0 0 0.7279 0 121.6779)">
			<stop  offset="0" style="stop-color:#F26522;stop-opacity:0.22"/>
			<stop  offset="0.5" style="stop-color:#7F3F98"/>
			<stop  offset="0.5376" style="stop-color:#944586;stop-opacity:0.9345"/>
			<stop  offset="0.583" style="stop-color:#A94D75;stop-opacity:0.8556"/>
			<stop  offset="0.6309" style="stop-color:#BC5364;stop-opacity:0.7722"/>
			<stop  offset="0.6805" style="stop-color:#CC5854;stop-opacity:0.6858"/>
			<stop  offset="0.7324" style="stop-color:#D95D44;stop-opacity:0.5957"/>
			<stop  offset="0.787" style="stop-color:#E36035;stop-opacity:0.5006"/>
			<stop  offset="0.8459" style="stop-color:#EA632B;stop-opacity:0.3982"/>
			<stop  offset="0.9119" style="stop-color:#F06524;stop-opacity:0.2833"/>
			<stop  offset="1" style="stop-color:#F26522;stop-opacity:0.13"/>
		</linearGradient>
		<path fill="url(#SVGID_6_)" d="M319.193,367.361c-151.089,0-229.154,8.758-229.154,8.758v1.367c0,0,78.065-8.757,229.154-8.757
			c151.091,0,229.153,8.757,229.153,8.757v-1.367C548.347,376.119,470.284,367.361,319.193,367.361z"/>
	</g>
	<g opacity="0.51">
		
			<radialGradient id="SVGID_7_" cx="319.1582" cy="392.3428" r="204.447" gradientTransform="matrix(1 0 0 0.3639 0 264.4682)" gradientUnits="userSpaceOnUse">
			<stop  offset="0" style="stop-color:#F26522;stop-opacity:0"/>
			<stop  offset="0.0887" style="stop-color:#EA632B;stop-opacity:0.0621"/>
			<stop  offset="0.2512" style="stop-color:#DC5E40;stop-opacity:0.1758"/>
			<stop  offset="0.4693" style="stop-color:#C4565D;stop-opacity:0.3285"/>
			<stop  offset="0.7346" style="stop-color:#A34A7A;stop-opacity:0.5142"/>
			<stop  offset="1" style="stop-color:#7F3F98;stop-opacity:0.7"/>
		</radialGradient>
		<path fill="url(#SVGID_7_)" d="M35.269,397.203c0,0,71.767-9.082,112.689-6.812l2.518,48.022c0,0-84.989,5.499-114.577,8.742
			l22.035-27.57L35.269,397.203z"/>
		
			<radialGradient id="SVGID_8_" cx="319.1582" cy="392.3428" r="204.447" gradientTransform="matrix(1 0 0 0.3639 0 264.4682)" gradientUnits="userSpaceOnUse">
			<stop  offset="0" style="stop-color:#F26522;stop-opacity:0"/>
			<stop  offset="0.0887" style="stop-color:#EA632B;stop-opacity:0.0621"/>
			<stop  offset="0.2512" style="stop-color:#DC5E40;stop-opacity:0.1758"/>
			<stop  offset="0.4693" style="stop-color:#C4565D;stop-opacity:0.3285"/>
			<stop  offset="0.7346" style="stop-color:#A34A7A;stop-opacity:0.5142"/>
			<stop  offset="1" style="stop-color:#7F3F98;stop-opacity:0.7"/>
		</radialGradient>
		<polygon fill="url(#SVGID_8_)" points="150.476,389.109 110.737,420.558 90.039,426.736 150.476,438.413 		"/>
		
			<radialGradient id="SVGID_9_" cx="319.1582" cy="392.3428" r="204.447" gradientTransform="matrix(1 0 0 0.3639 0 264.4682)" gradientUnits="userSpaceOnUse">
			<stop  offset="0" style="stop-color:#F26522;stop-opacity:0"/>
			<stop  offset="0.0887" style="stop-color:#EA632B;stop-opacity:0.0621"/>
			<stop  offset="0.2512" style="stop-color:#DC5E40;stop-opacity:0.1758"/>
			<stop  offset="0.4693" style="stop-color:#C4565D;stop-opacity:0.3285"/>
			<stop  offset="0.7346" style="stop-color:#A34A7A;stop-opacity:0.5142"/>
			<stop  offset="1" style="stop-color:#7F3F98;stop-opacity:0.7"/>
		</radialGradient>
		<path fill="url(#SVGID_9_)" d="M603.047,397.168c0,0-71.767-9.083-112.688-6.812l-2.517,48.021c0,0,84.988,5.498,114.575,8.742
			l-22.034-27.57L603.047,397.168z"/>
		
			<radialGradient id="SVGID_10_" cx="319.1582" cy="392.3428" r="204.447" gradientTransform="matrix(1 0 0 0.3639 0 264.4682)" gradientUnits="userSpaceOnUse">
			<stop  offset="0" style="stop-color:#F26522;stop-opacity:0"/>
			<stop  offset="0.0887" style="stop-color:#EA632B;stop-opacity:0.0621"/>
			<stop  offset="0.2512" style="stop-color:#DC5E40;stop-opacity:0.1758"/>
			<stop  offset="0.4693" style="stop-color:#C4565D;stop-opacity:0.3285"/>
			<stop  offset="0.7346" style="stop-color:#A34A7A;stop-opacity:0.5142"/>
			<stop  offset="1" style="stop-color:#7F3F98;stop-opacity:0.7"/>
		</radialGradient>
		<polygon fill="url(#SVGID_10_)" points="487.842,389.074 527.582,420.522 548.281,426.7 487.842,438.378 		"/>
		
			<radialGradient id="SVGID_11_" cx="319.1582" cy="392.3428" r="204.447" gradientTransform="matrix(1 0 0 0.3639 0 264.4682)" gradientUnits="userSpaceOnUse">
			<stop  offset="0" style="stop-color:#F26522;stop-opacity:0"/>
			<stop  offset="0.0887" style="stop-color:#EA632B;stop-opacity:0.0621"/>
			<stop  offset="0.2512" style="stop-color:#DC5E40;stop-opacity:0.1758"/>
			<stop  offset="0.4693" style="stop-color:#C4565D;stop-opacity:0.3285"/>
			<stop  offset="0.7346" style="stop-color:#A34A7A;stop-opacity:0.5142"/>
			<stop  offset="1" style="stop-color:#7F3F98;stop-opacity:0.7"/>
		</radialGradient>
		<path fill="url(#SVGID_11_)" d="M548.347,426.721c0,0-51.621-8.759-229.153-8.759c-177.532,0-229.154,8.759-229.154,8.759v-50.602
			c0,0,78.065-8.758,229.154-8.758c151.091,0,229.153,8.758,229.153,8.758V426.721z"/>
		
			<radialGradient id="SVGID_12_" cx="319.1582" cy="392.3428" r="204.447" gradientTransform="matrix(1 0 0 0.3639 0 264.4682)" gradientUnits="userSpaceOnUse">
			<stop  offset="0" style="stop-color:#F26522;stop-opacity:0"/>
			<stop  offset="0.0887" style="stop-color:#EA632B;stop-opacity:0.0621"/>
			<stop  offset="0.2512" style="stop-color:#DC5E40;stop-opacity:0.1758"/>
			<stop  offset="0.4693" style="stop-color:#C4565D;stop-opacity:0.3285"/>
			<stop  offset="0.7346" style="stop-color:#A34A7A;stop-opacity:0.5142"/>
			<stop  offset="1" style="stop-color:#7F3F98;stop-opacity:0.7"/>
		</radialGradient>
		<path fill="url(#SVGID_12_)" d="M319.193,367.361c-151.089,0-229.154,8.758-229.154,8.758v1.367c0,0,78.065-8.757,229.154-8.757
			c151.091,0,229.153,8.757,229.153,8.757v-1.367C548.347,376.119,470.284,367.361,319.193,367.361z"/>
	</g>
	<g opacity="0.7">
		
			<linearGradient id="SVGID_13_" gradientUnits="userSpaceOnUse" x1="319.1582" y1="337.5303" x2="319.1582" y2="447.1548" gradientTransform="matrix(1 0 0 0.7279 0 121.6779)">
			<stop  offset="0" style="stop-color:#FFFFFF;stop-opacity:0.77"/>
			<stop  offset="0.45" style="stop-color:#FFFFFF;stop-opacity:0"/>
			<stop  offset="0.4729" style="stop-color:#E7DAEB;stop-opacity:0.0067"/>
			<stop  offset="0.5004" style="stop-color:#CEB6D8;stop-opacity:0.0147"/>
			<stop  offset="0.5313" style="stop-color:#B996C6;stop-opacity:0.0237"/>
			<stop  offset="0.5655" style="stop-color:#A77AB8;stop-opacity:0.0336"/>
			<stop  offset="0.6041" style="stop-color:#9864AC;stop-opacity:0.0448"/>
			<stop  offset="0.6491" style="stop-color:#8D53A3;stop-opacity:0.0579"/>
			<stop  offset="0.7049" style="stop-color:#85489D;stop-opacity:0.0741"/>
			<stop  offset="0.783" style="stop-color:#804199;stop-opacity:0.0969"/>
			<stop  offset="1" style="stop-color:#7F3F98;stop-opacity:0.16"/>
		</linearGradient>
		<path fill="url(#SVGID_13_)" d="M35.269,397.203c0,0,71.767-9.082,112.689-6.812l2.518,48.022c0,0-84.989,5.499-114.577,8.742
			l22.035-27.57L35.269,397.203z"/>
		
			<linearGradient id="SVGID_14_" gradientUnits="userSpaceOnUse" x1="319.1582" y1="337.5303" x2="319.1582" y2="447.1548" gradientTransform="matrix(1 0 0 0.7279 0 121.6779)">
			<stop  offset="0" style="stop-color:#FFFFFF;stop-opacity:0.77"/>
			<stop  offset="0.45" style="stop-color:#FFFFFF;stop-opacity:0"/>
			<stop  offset="0.4729" style="stop-color:#E7DAEB;stop-opacity:0.0067"/>
			<stop  offset="0.5004" style="stop-color:#CEB6D8;stop-opacity:0.0147"/>
			<stop  offset="0.5313" style="stop-color:#B996C6;stop-opacity:0.0237"/>
			<stop  offset="0.5655" style="stop-color:#A77AB8;stop-opacity:0.0336"/>
			<stop  offset="0.6041" style="stop-color:#9864AC;stop-opacity:0.0448"/>
			<stop  offset="0.6491" style="stop-color:#8D53A3;stop-opacity:0.0579"/>
			<stop  offset="0.7049" style="stop-color:#85489D;stop-opacity:0.0741"/>
			<stop  offset="0.783" style="stop-color:#804199;stop-opacity:0.0969"/>
			<stop  offset="1" style="stop-color:#7F3F98;stop-opacity:0.16"/>
		</linearGradient>
		<polygon fill="url(#SVGID_14_)" points="150.476,389.109 110.737,420.558 90.039,426.736 150.476,438.413 		"/>
		
			<linearGradient id="SVGID_15_" gradientUnits="userSpaceOnUse" x1="319.1582" y1="337.5303" x2="319.1582" y2="447.1548" gradientTransform="matrix(1 0 0 0.7279 0 121.6779)">
			<stop  offset="0" style="stop-color:#FFFFFF;stop-opacity:0.77"/>
			<stop  offset="0.45" style="stop-color:#FFFFFF;stop-opacity:0"/>
			<stop  offset="0.4729" style="stop-color:#E7DAEB;stop-opacity:0.0067"/>
			<stop  offset="0.5004" style="stop-color:#CEB6D8;stop-opacity:0.0147"/>
			<stop  offset="0.5313" style="stop-color:#B996C6;stop-opacity:0.0237"/>
			<stop  offset="0.5655" style="stop-color:#A77AB8;stop-opacity:0.0336"/>
			<stop  offset="0.6041" style="stop-color:#9864AC;stop-opacity:0.0448"/>
			<stop  offset="0.6491" style="stop-color:#8D53A3;stop-opacity:0.0579"/>
			<stop  offset="0.7049" style="stop-color:#85489D;stop-opacity:0.0741"/>
			<stop  offset="0.783" style="stop-color:#804199;stop-opacity:0.0969"/>
			<stop  offset="1" style="stop-color:#7F3F98;stop-opacity:0.16"/>
		</linearGradient>
		<path fill="url(#SVGID_15_)" d="M603.047,397.168c0,0-71.767-9.083-112.688-6.812l-2.517,48.021c0,0,84.988,5.498,114.575,8.742
			l-22.034-27.57L603.047,397.168z"/>
		
			<linearGradient id="SVGID_16_" gradientUnits="userSpaceOnUse" x1="319.1582" y1="337.5303" x2="319.1582" y2="447.1548" gradientTransform="matrix(1 0 0 0.7279 0 121.6779)">
			<stop  offset="0" style="stop-color:#FFFFFF;stop-opacity:0.77"/>
			<stop  offset="0.45" style="stop-color:#FFFFFF;stop-opacity:0"/>
			<stop  offset="0.4729" style="stop-color:#E7DAEB;stop-opacity:0.0067"/>
			<stop  offset="0.5004" style="stop-color:#CEB6D8;stop-opacity:0.0147"/>
			<stop  offset="0.5313" style="stop-color:#B996C6;stop-opacity:0.0237"/>
			<stop  offset="0.5655" style="stop-color:#A77AB8;stop-opacity:0.0336"/>
			<stop  offset="0.6041" style="stop-color:#9864AC;stop-opacity:0.0448"/>
			<stop  offset="0.6491" style="stop-color:#8D53A3;stop-opacity:0.0579"/>
			<stop  offset="0.7049" style="stop-color:#85489D;stop-opacity:0.0741"/>
			<stop  offset="0.783" style="stop-color:#804199;stop-opacity:0.0969"/>
			<stop  offset="1" style="stop-color:#7F3F98;stop-opacity:0.16"/>
		</linearGradient>
		<polygon fill="url(#SVGID_16_)" points="487.842,389.074 527.582,420.522 548.281,426.7 487.842,438.378 		"/>
		
			<linearGradient id="SVGID_17_" gradientUnits="userSpaceOnUse" x1="319.1582" y1="337.5303" x2="319.1582" y2="447.1548" gradientTransform="matrix(1 0 0 0.7279 0 121.6779)">
			<stop  offset="0" style="stop-color:#FFFFFF;stop-opacity:0.77"/>
			<stop  offset="0.45" style="stop-color:#FFFFFF;stop-opacity:0"/>
			<stop  offset="0.4729" style="stop-color:#E7DAEB;stop-opacity:0.0067"/>
			<stop  offset="0.5004" style="stop-color:#CEB6D8;stop-opacity:0.0147"/>
			<stop  offset="0.5313" style="stop-color:#B996C6;stop-opacity:0.0237"/>
			<stop  offset="0.5655" style="stop-color:#A77AB8;stop-opacity:0.0336"/>
			<stop  offset="0.6041" style="stop-color:#9864AC;stop-opacity:0.0448"/>
			<stop  offset="0.6491" style="stop-color:#8D53A3;stop-opacity:0.0579"/>
			<stop  offset="0.7049" style="stop-color:#85489D;stop-opacity:0.0741"/>
			<stop  offset="0.783" style="stop-color:#804199;stop-opacity:0.0969"/>
			<stop  offset="1" style="stop-color:#7F3F98;stop-opacity:0.16"/>
		</linearGradient>
		<path fill="url(#SVGID_17_)" d="M548.347,426.721c0,0-51.621-8.759-229.153-8.759c-177.532,0-229.154,8.759-229.154,8.759v-50.602
			c0,0,78.065-8.758,229.154-8.758c151.091,0,229.153,8.758,229.153,8.758V426.721z"/>
		
			<linearGradient id="SVGID_18_" gradientUnits="userSpaceOnUse" x1="319.1582" y1="337.5303" x2="319.1582" y2="447.1548" gradientTransform="matrix(1 0 0 0.7279 0 121.6779)">
			<stop  offset="0" style="stop-color:#FFFFFF;stop-opacity:0.77"/>
			<stop  offset="0.45" style="stop-color:#FFFFFF;stop-opacity:0"/>
			<stop  offset="0.4729" style="stop-color:#E7DAEB;stop-opacity:0.0067"/>
			<stop  offset="0.5004" style="stop-color:#CEB6D8;stop-opacity:0.0147"/>
			<stop  offset="0.5313" style="stop-color:#B996C6;stop-opacity:0.0237"/>
			<stop  offset="0.5655" style="stop-color:#A77AB8;stop-opacity:0.0336"/>
			<stop  offset="0.6041" style="stop-color:#9864AC;stop-opacity:0.0448"/>
			<stop  offset="0.6491" style="stop-color:#8D53A3;stop-opacity:0.0579"/>
			<stop  offset="0.7049" style="stop-color:#85489D;stop-opacity:0.0741"/>
			<stop  offset="0.783" style="stop-color:#804199;stop-opacity:0.0969"/>
			<stop  offset="1" style="stop-color:#7F3F98;stop-opacity:0.16"/>
		</linearGradient>
		<path fill="url(#SVGID_18_)" d="M319.193,367.361c-151.089,0-229.154,8.758-229.154,8.758v1.367c0,0,78.065-8.757,229.154-8.757
			c151.091,0,229.153,8.757,229.153,8.757v-1.367C548.347,376.119,470.284,367.361,319.193,367.361z"/>
	</g>
	<g>
		<path fill="none" stroke="#7F3F98" stroke-width="0.25" stroke-miterlimit="1" d="M35.269,397.203c0,0,71.767-9.082,112.689-6.812
			l2.518,48.022c0,0-84.989,5.499-114.577,8.742l22.035-27.57L35.269,397.203z"/>
		<polygon fill="none" stroke="#7F3F98" stroke-width="0.25" stroke-miterlimit="1" points="150.476,389.109 110.737,420.558 
			90.039,426.736 150.476,438.413 		"/>
		<path fill="none" stroke="#7F3F98" stroke-width="0.25" stroke-miterlimit="1" d="M603.047,397.168
			c0,0-71.767-9.083-112.688-6.812l-2.517,48.021c0,0,84.988,5.498,114.575,8.742l-22.034-27.57L603.047,397.168z"/>
		<polygon fill="none" stroke="#7F3F98" stroke-width="0.25" stroke-miterlimit="1" points="487.842,389.074 527.582,420.522 
			548.281,426.7 487.842,438.378 		"/>
		<path fill="none" stroke="#7F3F98" stroke-width="0.25" stroke-miterlimit="1" d="M548.347,426.721
			c0,0-51.621-8.759-229.153-8.759c-177.532,0-229.154,8.759-229.154,8.759v-50.602c0,0,78.065-8.758,229.154-8.758
			c151.091,0,229.153,8.758,229.153,8.758V426.721z"/>
		<path fill="none" stroke="#7F3F98" stroke-width="0.25" stroke-miterlimit="1" d="M319.193,367.361
			c-151.089,0-229.154,8.758-229.154,8.758v1.367c0,0,78.065-8.757,229.154-8.757c151.091,0,229.153,8.757,229.153,8.757v-1.367
			C548.347,376.119,470.284,367.361,319.193,367.361z"/>
	</g>
	<g opacity="0.58">
		<g>
			<path fill="#F26522" d="M35.269,397.828c29.5-3.724,59.293-6.378,89.021-7.073c2.353-0.055,23.614-0.742,23.688,0.655
				c0.252,4.811,0.505,9.621,0.757,14.431c0.58,11.059,1.16,22.116,1.74,33.174c0-0.409,0.001-0.818,0.001-1.228
				c-38.191,2.473-76.523,4.608-114.577,8.742c0,0.417,0,0.833,0,1.25c7.345-9.19,14.69-18.38,22.035-27.57
				c0.07-0.088,0.075-1.177,0-1.25c-7.555-7.461-15.11-14.921-22.665-22.382C35.472,396.779,35.056,397.618,35.269,397.828
				c7.555,7.461,15.11,14.921,22.665,22.382c0-0.417,0-0.833,0-1.25c-7.345,9.19-14.69,18.38-22.035,27.57
				c-0.086,0.107,0.065,1.243,0,1.25c38.054-4.134,76.385-6.27,114.577-8.742c0.023-0.002,0.008-1.112,0.001-1.228
				c-0.839-16.008-1.679-32.015-2.518-48.022c0-0.007-0.001-0.015-0.001-0.022c-37.395-1.966-75.6,2.13-112.689,6.812
				C35.208,396.586,35.311,397.822,35.269,397.828z"/>
		</g>
		<g>
			<path fill="#F26522" d="M150.476,388.484c-10.62,8.404-21.24,16.809-31.86,25.214c-2.748,2.175-5.734,5.594-9.16,6.617
				c-6.472,1.932-12.944,3.864-19.417,5.796c-0.041,0.012-0.012,1.248,0,1.25c20.146,3.893,40.291,7.784,60.437,11.677
				c-0.011-0.002,0.006-0.591,0.006-0.625c0-16.435,0-32.869,0-49.304c0-0.707-0.013-0.707-0.013,0c0,9.545,0,19.089,0,28.634
				c0,5.733,0,11.467,0,17.201c0,1.121,0,2.241,0,3.362c0-0.804-0.98-0.709-1.939-0.895c-19.497-3.767-38.994-7.534-58.491-11.301
				c0,0.417,0,0.833,0,1.25c6.298-1.88,12.596-3.76,18.894-5.641c3.722-1.11,6.678-4.396,9.682-6.772
				c10.62-8.405,21.24-16.81,31.86-25.214C150.684,389.569,150.279,388.64,150.476,388.484z"/>
		</g>
		<g>
			<path fill="#F26522" d="M603.047,396.543c-37.089-4.682-75.294-8.779-112.688-6.812c-0.001,0.007-0.001,0.015-0.002,0.022
				c-0.839,16.007-1.678,32.015-2.517,48.021c-0.006,0.115-0.021,1.226,0.002,1.228c38.191,2.473,76.522,4.607,114.575,8.742
				c-0.065-0.007,0.086-1.143,0-1.25c-7.345-9.19-14.689-18.38-22.034-27.57c0,0.417,0,0.833,0,1.25
				c7.555-7.461,15.109-14.921,22.664-22.382C603.26,397.583,602.844,396.744,603.047,396.543
				c-7.555,7.461-15.109,14.921-22.664,22.382c-0.074,0.073-0.07,1.162,0,1.25c7.345,9.19,14.689,18.38,22.034,27.57
				c0-0.417,0-0.833,0-1.25c-38.053-4.135-76.384-6.27-114.575-8.742c0.001,0.409,0.001,0.818,0.002,1.228
				c0.563-10.749,1.126-21.497,1.689-32.246c0.26-4.952,0.52-9.904,0.778-14.855c0.104-1.965,5.396-1.128,7.067-1.173
				c5.104-0.137,10.211-0.103,15.314-0.013c30.159,0.53,60.433,3.322,90.354,7.1C603.005,397.787,603.107,396.551,603.047,396.543z"
				/>
		</g>
		<g>
			<path fill="#F26522" d="M487.842,389.699c10.62,8.404,21.241,16.809,31.861,25.214c2.748,2.175,5.734,5.595,9.16,6.617
				c6.473,1.932,12.945,3.863,19.418,5.795c0-0.417,0-0.833,0-1.25c-19.498,3.768-38.995,7.534-58.493,11.302
				c-0.873,0.169-1.94-0.004-1.94,0.975c0-0.973,0-1.945,0-2.918c0-5.58,0-11.16,0-16.741c0-9.872,0-19.745,0-29.618
				c0-0.707-0.012-0.707-0.012,0c0,16.435,0,32.869,0,49.304c0,0.034,0.017,0.623,0.006,0.625
				c20.146-3.893,40.293-7.785,60.439-11.678c0.012-0.002,0.041-1.238,0-1.25c-6.299-1.88-12.597-3.76-18.896-5.64
				c-3.722-1.11-6.678-4.396-9.683-6.772c-10.62-8.405-21.241-16.81-31.861-25.214C488.039,388.605,487.634,389.534,487.842,389.699
				z"/>
		</g>
		<g>
			<path fill="#F26522" d="M548.347,426.096c-8.454-1.429-17.093-2.05-25.626-2.766c-30.76-2.582-61.643-3.755-92.491-4.615
				c-57.054-1.592-114.164-1.731-171.232-1.01c-40.201,0.509-80.427,1.507-120.56,3.986c-15.257,0.943-30.576,1.966-45.733,4.015
				c-0.83,0.112-1.659,0.229-2.486,0.36c-0.426,0.068-0.172,1.032-0.172,0.248c0-2.019,0-4.037,0-6.057c0-14.06,0-28.119,0-42.178
				c0-2.213-0.547-1.283,1.293-1.475c2.204-0.23,4.41-0.44,6.616-0.644c9.95-0.918,19.916-1.667,29.885-2.345
				c41.695-2.837,83.486-4.273,125.267-5.045c92.202-1.702,184.927-0.979,276.899,6.49c4.769,0.387,9.536,0.803,14.298,1.268
				c1.095,0.107,2.188,0.217,3.282,0.333c1.095,0.116,0.755-0.797,0.755,0.354c0,16.568,0,33.137,0,49.705
				c0,0.707,0.012,0.707,0.012,0c0-16.867,0-33.734,0-50.602c0-0.034,0.012-0.623-0.006-0.625
				c-14.823-1.658-29.744-2.622-44.625-3.577c-44.001-2.822-88.095-4.182-132.177-4.818c-89.059-1.285-178.643-0.486-267.453,7.069
				c-4.687,0.399-9.378,0.803-14.053,1.326c-0.018,0.002-0.006,0.591-0.006,0.625c0,16.867,0,33.734,0,50.602
				c0,0.033,0.015,0.624,0.006,0.625c8.455-1.429,17.093-2.05,25.627-2.766c30.759-2.582,61.643-3.755,92.491-4.615
				c57.053-1.592,114.164-1.731,171.232-1.01c40.201,0.509,80.427,1.507,120.56,3.986c16.074,0.994,32.483,1.716,48.397,4.404
				C548.287,427.336,548.424,426.108,548.347,426.096z"/>
		</g>
		<g>
			<path fill="#F26522" d="M319.193,366.736c-75.124,0.019-150.797,1.019-225.632,8.395c-1.174,0.116-2.349,0.232-3.522,0.364
				c-0.018,0.002-0.006,0.591-0.006,0.625c0,0.456,0,0.912,0,1.367c0,0.033,0.009,0.625,0.006,0.625
				c14.824-1.658,29.745-2.622,44.626-3.576c44-2.822,88.095-4.181,132.177-4.817c89.058-1.285,178.642-0.486,267.452,7.068
				c4.687,0.398,9.378,0.802,14.053,1.325c-0.003,0,0.006-0.592,0.006-0.625c0-0.456,0-0.912,0-1.367
				c0-0.034,0.012-0.623-0.006-0.625c-14.823-1.658-29.744-2.622-44.625-3.577c-44.001-2.822-88.095-4.182-132.177-4.818
				C354.096,366.848,336.645,366.74,319.193,366.736c-0.01,0-0.01,1.25,0,1.25c75.124,0.019,150.797,1.018,225.631,8.395
				c1.161,0.114,2.322,0.231,3.482,0.359c-0.087-0.01,0.41,0.162-0.248,0.09c-0.564-0.061-1.13-0.12-1.694-0.177
				c-6.85-0.702-13.712-1.272-20.575-1.81c-35.62-2.788-71.34-4.335-107.049-5.371c-98.684-2.861-197.895-2.347-296.413,4.645
				c-8.937,0.634-17.869,1.339-26.788,2.188c-1.684,0.16-3.368,0.326-5.05,0.507c-1.03,0.11-0.579-0.057,0.432-0.164
				c18.956-2.004,38.012-3.194,57.037-4.284c57.009-3.265,114.141-4.365,171.236-4.379
				C319.203,367.986,319.203,366.736,319.193,366.736z"/>
		</g>
	</g>
	<g>
		<linearGradient id="SVGID_19_" gradientUnits="userSpaceOnUse" x1="132.3594" y1="409.4619" x2="40.8986" y2="428.7933">
			<stop  offset="0" style="stop-color:#00A14B"/>
			<stop  offset="1" style="stop-color:#777BBB"/>
		</linearGradient>
		<path fill="url(#SVGID_19_)" d="M35.269,397.203c0,0,71.767-9.082,112.689-6.812l2.518,48.022c0,0-84.989,5.499-114.577,8.742
			l22.035-27.57L35.269,397.203z"/>
		<linearGradient id="SVGID_20_" gradientUnits="userSpaceOnUse" x1="120.2573" y1="417.6387" x2="120.2573" y2="435.6414">
			<stop  offset="0" style="stop-color:#FFDE17"/>
			<stop  offset="1" style="stop-color:#2FA652"/>
		</linearGradient>
		<polygon fill="url(#SVGID_20_)" points="150.476,389.109 110.737,420.558 90.039,426.736 150.476,438.413 		"/>
		
			<linearGradient id="SVGID_21_" gradientUnits="userSpaceOnUse" x1="118.3755" y1="409.4268" x2="26.9147" y2="428.7581" gradientTransform="matrix(-1 0 0 1 624.332 0)">
			<stop  offset="0" style="stop-color:#00A14B"/>
			<stop  offset="1" style="stop-color:#777BBB"/>
		</linearGradient>
		<path fill="url(#SVGID_21_)" d="M603.047,397.168c0,0-71.767-9.083-112.688-6.812l-2.517,48.021c0,0,84.988,5.498,114.575,8.742
			l-22.034-27.57L603.047,397.168z"/>
		<linearGradient id="SVGID_22_" gradientUnits="userSpaceOnUse" x1="518.0615" y1="417.6387" x2="518.0615" y2="435.6414">
			<stop  offset="0" style="stop-color:#FFDE17"/>
			<stop  offset="1" style="stop-color:#2FA652"/>
		</linearGradient>
		<polygon fill="url(#SVGID_22_)" points="487.842,389.074 527.582,420.522 548.281,426.7 487.842,438.378 		"/>
		<linearGradient id="SVGID_23_" gradientUnits="userSpaceOnUse" x1="87.5215" y1="397.041" x2="548.3452" y2="397.041">
			<stop  offset="0" style="stop-color:#21409A"/>
			<stop  offset="0.1203" style="stop-color:#4B5AA8"/>
			<stop  offset="0.2487" style="stop-color:#6E74B7"/>
			<stop  offset="0.3632" style="stop-color:#8689C3"/>
			<stop  offset="0.4582" style="stop-color:#9698CB"/>
			<stop  offset="0.522" style="stop-color:#9C9ECE"/>
			<stop  offset="0.5813" style="stop-color:#9698CB"/>
			<stop  offset="0.6654" style="stop-color:#888BC4"/>
			<stop  offset="0.7643" style="stop-color:#7277B8"/>
			<stop  offset="0.8744" style="stop-color:#525EAA"/>
			<stop  offset="0.9926" style="stop-color:#24429B"/>
			<stop  offset="1" style="stop-color:#21409A"/>
		</linearGradient>
		<path fill="url(#SVGID_23_)" d="M548.347,426.721c0,0-51.621-8.759-229.153-8.759c-177.532,0-229.154,8.759-229.154,8.759v-50.602
			c0,0,78.065-8.758,229.154-8.758c151.091,0,229.153,8.758,229.153,8.758V426.721z"/>
		<path fill="#FFFFFF" d="M319.193,367.361c-151.089,0-229.154,8.758-229.154,8.758v1.367c0,0,78.065-8.757,229.154-8.757
			c151.091,0,229.153,8.757,229.153,8.757v-1.367C548.347,376.119,470.284,367.361,319.193,367.361z"/>
	</g>
</g>
</svg>
