<?xml version="1.0" encoding="utf-8"?>
<!-- Generator: Adobe Illustrator 15.1.0, SVG Export Plug-In . SVG Version: 6.00 Build 0)  -->
<!DOCTYPE svg PUBLIC "-//W3C//DTD SVG 1.1//EN" "http://www.w3.org/Graphics/SVG/1.1/DTD/svg11.dtd">
<svg version="1.1" id="Layer_1" xmlns="http://www.w3.org/2000/svg" xmlns:xlink="http://www.w3.org/1999/xlink" x="0px" y="0px"
	 width="612px" height="792px" viewBox="0 0 612 792" enable-background="new 0 0 612 792" xml:space="preserve">
<g>
	<rect x="57.17" y="346.443" fill="#009444" width="1.296" height="50.132"/>
	<rect x="67.741" y="404.583" fill="#009444" width="118.869" height="1.296"/>
	<g>
		<polygon fill="#009444" points="53.12,309.333 53.12,399.172 50.598,401.614 50.598,309.333 		"/>
	</g>
	<g>
		<polygon fill="#009444" points="203.699,409.93 65.224,409.93 62.786,412.451 203.699,412.451 		"/>
	</g>
	<g>
		<path fill="#009444" d="M70.947,421.925c3.284,8.416,3.714,9.778,6.373,14.343c0.056,0.102-0.201-0.129-0.715-0.609
			c0.472,0.52,0.695,0.783,0.595,0.719c-4.491-2.775-5.84-3.244-14.162-6.751c-7.175-3.024-5.379-10.46-4.753-12.456
			c-0.106-0.107-0.165-0.173-0.165-0.173s0.092-0.028,0.254-0.081c0.053-0.154,0.086-0.248,0.086-0.248s0.062,0.063,0.167,0.17
			C60.641,416.262,68.121,414.672,70.947,421.925z"/>
		<path fill="#009444" d="M42.544,393.522c-8.417-3.286-9.786-3.719-14.341-6.373c-0.109-0.063,0.12,0.196,0.6,0.709
			c-0.517-0.475-0.779-0.692-0.72-0.594c2.784,4.492,3.253,5.846,6.758,14.163c3.027,7.178,10.457,5.38,12.453,4.752
			c0.109,0.109,0.173,0.167,0.173,0.167s0.028-0.089,0.081-0.254c0.159-0.054,0.246-0.089,0.246-0.089s-0.056-0.057-0.167-0.166
			C48.205,403.823,49.791,396.343,42.544,393.522z"/>
		<path fill="#009444" d="M37.472,420.382c-3.279,8.413-3.711,9.782-6.368,14.339c-0.061,0.111,0.204-0.122,0.709-0.598
			c-0.472,0.506-0.695,0.777-0.586,0.72c4.482-2.778,5.832-3.251,14.157-6.757c7.175-3.026,5.384-10.461,4.75-12.451
			c0.104-0.117,0.17-0.18,0.17-0.18s-0.098-0.029-0.257-0.082c-0.053-0.159-0.087-0.252-0.087-0.252s-0.062,0.063-0.167,0.17
			C47.786,414.72,40.298,413.127,37.472,420.382z"/>
	</g>
	<polygon fill="#009444" points="65.559,405.229 59.072,398.746 52.584,405.229 59.072,411.716 	"/>
</g>
<g>
	<rect x="57.164" y="228.386" fill="#009444" width="1.296" height="50.132"/>
	<rect x="67.735" y="219.082" fill="#009444" width="118.869" height="1.296"/>
	<g>
		<polygon fill="#009444" points="53.114,309.333 53.114,225.789 50.592,223.347 50.592,309.333 		"/>
	</g>
	<g>
		<polygon fill="#009444" points="203.693,215.031 65.218,215.031 62.78,212.509 203.693,212.509 		"/>
	</g>
	<g>
		<path fill="#009444" d="M70.941,203.036c3.284-8.416,3.714-9.779,6.373-14.342c0.056-0.102-0.201,0.128-0.715,0.609
			c0.472-0.52,0.695-0.784,0.595-0.719c-4.491,2.776-5.84,3.245-14.162,6.751c-7.175,3.024-5.379,10.46-4.753,12.456
			c-0.106,0.107-0.165,0.173-0.165,0.173s0.092,0.028,0.254,0.081c0.053,0.155,0.086,0.249,0.086,0.249s0.062-0.063,0.167-0.17
			C60.635,208.7,68.115,210.289,70.941,203.036z"/>
		<path fill="#009444" d="M42.538,231.438c-8.417,3.286-9.786,3.719-14.341,6.373c-0.109,0.063,0.12-0.196,0.6-0.709
			c-0.517,0.475-0.779,0.692-0.72,0.594c2.784-4.492,3.253-5.846,6.758-14.163c3.027-7.179,10.457-5.38,12.453-4.752
			c0.109-0.11,0.173-0.167,0.173-0.167s0.028,0.089,0.081,0.254c0.159,0.053,0.246,0.089,0.246,0.089s-0.056,0.056-0.167,0.165
			C48.199,221.138,49.785,228.618,42.538,231.438z"/>
		<path fill="#009444" d="M37.466,204.579c-3.279-8.413-3.711-9.782-6.368-14.339c-0.061-0.11,0.204,0.123,0.709,0.598
			c-0.472-0.506-0.695-0.777-0.586-0.719c4.482,2.779,5.832,3.25,14.157,6.757c7.175,3.026,5.384,10.46,4.75,12.452
			c0.104,0.116,0.17,0.179,0.17,0.179s-0.098,0.029-0.257,0.083c-0.053,0.159-0.087,0.251-0.087,0.251s-0.062-0.063-0.167-0.169
			C47.78,210.241,40.292,211.833,37.466,204.579z"/>
	</g>
	<polygon fill="#009444" points="65.553,219.731 59.066,226.215 52.578,219.731 59.066,213.245 	"/>
</g>
</svg>
